<?xml version="1.0" standalone="no"?>
<!DOCTYPE svg PUBLIC "-//W3C//DTD SVG 20010904//EN"
 "http://www.w3.org/TR/2001/REC-SVG-20010904/DTD/svg10.dtd">
<svg version="1.0" xmlns="http://www.w3.org/2000/svg"
 width="1800.000000pt" height="2108.000000pt" viewBox="0 0 1800.000000 2108.000000"
 preserveAspectRatio="xMidYMid meet">

<g transform="translate(0.000000,2108.000000) scale(0.100000,-0.100000)"
fill="#000000" stroke="none">
<path d="M4500 18526 c-3183 -1857 -4387 -2565 -4420 -2597 -25 -24 -52 -62
-60 -84 -13 -35 -15 -979 -18 -7825 -1 -5492 1 -7800 8 -7837 13 -61 52 -122
100 -158 l34 -25 4162 0 4162 0 49 44 c93 84 289 504 423 906 189 567 280
1128 280 1724 0 808 -154 1497 -514 2309 -202 455 -331 891 -392 1327 -23 160
-26 638 -6 775 87 580 315 1037 718 1440 329 329 718 574 1289 811 478 198
925 452 1319 749 514 386 953 851 1235 1305 230 369 360 704 417 1073 27 171
25 454 -5 621 -37 208 -121 456 -196 576 -144 231 -356 360 -665 406 -91 13
-156 15 -310 11 -292 -9 -525 -48 -1141 -192 -626 -147 -750 -169 -959 -169
-204 0 -323 26 -481 105 -205 102 -368 270 -624 642 -101 147 -213 259 -350
353 -495 337 -1233 534 -2004 534 -936 -1 -1907 -273 -2851 -800 -1040 -580
-1670 -1425 -1999 -2680 -93 -358 -155 -663 -271 -1340 -115 -671 -187 -991
-295 -1315 -118 -354 -247 -604 -432 -835 -75 -94 -172 -200 -184 -200 -5 0
-9 1543 -9 3714 l0 3713 4252 2482 c3621 2114 4255 2481 4272 2473 12 -6 1925
-1122 4251 -2480 l4230 -2470 3 -7566 2 -7566 -3532 0 -3532 0 -43 -21 c-54
-26 -116 -96 -131 -147 -30 -98 -8 -185 63 -259 l51 -53 3746 0 3745 0 39 29
c22 15 47 40 57 54 16 25 17 487 17 7912 l0 7886 -42 44 c-33 33 -1066 641
-4422 2599 l-4380 2556 -140 0 -141 0 -4375 -2554z m2510 -3700 c406 -52 716
-139 1005 -281 272 -133 355 -200 490 -397 147 -215 247 -340 375 -468 143
-142 266 -232 435 -315 246 -122 439 -160 760 -152 256 6 343 22 990 173 595
140 785 173 1040 181 209 6 311 -8 411 -57 107 -53 157 -127 222 -331 48 -148
66 -296 59 -474 -11 -272 -75 -503 -222 -800 -171 -346 -403 -655 -741 -985
-494 -482 -1041 -836 -1747 -1129 -588 -245 -1008 -509 -1371 -861 -530 -514
-828 -1109 -918 -1830 -20 -161 -17 -631 6 -805 64 -506 213 -1015 456 -1560
235 -528 369 -1024 426 -1580 21 -206 24 -673 5 -875 -56 -609 -209 -1193
-443 -1691 l-51 -109 -3843 0 -3844 0 0 3524 0 3523 54 36 c105 70 253 196
371 318 371 383 615 861 795 1564 67 261 128 568 210 1055 22 135 44 253 48
262 6 14 22 -3 79 -80 447 -606 1348 -1169 2638 -1647 116 -43 352 -130 525
-195 335 -125 472 -168 623 -200 560 -117 1036 41 1515 504 179 173 386 418
509 601 164 245 243 559 213 850 -52 505 -333 1039 -874 1655 -234 267 -672
685 -1021 974 -283 234 -684 534 -755 563 -19 8 -60 15 -92 15 -158 0 -279
-145 -248 -296 18 -86 52 -125 201 -234 551 -401 982 -773 1393 -1202 485
-507 783 -982 872 -1390 23 -106 23 -313 0 -405 -39 -155 -158 -338 -394 -606
-249 -284 -510 -469 -746 -529 -194 -49 -413 -33 -676 52 -107 34 -881 324
-1095 410 -586 236 -1058 476 -1445 733 -232 155 -372 266 -525 420 -298 297
-446 582 -462 891 -8 149 7 242 71 431 77 230 129 355 233 563 260 521 580
895 1057 1240 298 214 868 503 1317 666 431 156 887 257 1329 294 160 13 634
4 780 -14z"/>
<path d="M8400 13341 c-131 -40 -219 -151 -228 -287 -10 -160 78 -284 233
-329 233 -68 458 157 390 390 -42 146 -160 236 -308 234 -34 0 -73 -4 -87 -8z"/>
</g>
</svg>
