<?xml version="1.0" standalone="no"?>
<!DOCTYPE svg PUBLIC "-//W3C//DTD SVG 20010904//EN"
 "http://www.w3.org/TR/2001/REC-SVG-20010904/DTD/svg10.dtd">
<svg version="1.0" xmlns="http://www.w3.org/2000/svg"
 width="1774.000000pt" height="1503.000000pt" viewBox="0 0 1774.000000 1503.000000"
 preserveAspectRatio="xMidYMid meet">

<g transform="translate(0.000000,1503.000000) scale(0.100000,-0.100000)"
fill="#000000" stroke="none">
<path d="M8640 14984 c-19 -2 -84 -9 -145 -15 -377 -38 -759 -152 -1075 -321
-84 -45 -6456 -4126 -6635 -4249 -397 -273 -666 -627 -761 -996 -24 -94 -25
-107 -21 -353 3 -226 6 -264 25 -333 89 -313 297 -596 567 -769 151 -98 351
-182 528 -224 l77 -18 0 -2745 c0 -2758 2 -2871 36 -3076 87 -524 376 -1020
796 -1371 267 -224 633 -400 998 -481 l125 -28 2233 -2 2233 -3 84 39 c193 90
715 372 1010 546 77 45 148 85 159 89 77 27 755 462 1098 702 1606 1126 2629
2352 2952 3536 108 397 141 827 90 1182 -109 759 -598 1428 -1289 1766 -227
111 -434 178 -671 216 -133 21 -472 30 -605 15 -391 -44 -729 -166 -1055 -379
-155 -102 -272 -200 -416 -351 l-118 -123 -117 123 c-251 261 -509 438 -841
574 -295 121 -590 171 -942 162 -219 -6 -322 -19 -514 -68 -412 -104 -820
-343 -1113 -653 -646 -683 -818 -1611 -486 -2631 366 -1128 1372 -2298 2887
-3358 l179 -126 41 28 c23 15 132 90 244 165 l203 138 -148 100 c-613 416
-1101 810 -1542 1243 -767 754 -1227 1473 -1406 2199 -59 237 -70 333 -70 601
0 211 3 254 23 354 115 567 469 1031 977 1281 197 97 399 156 617 179 536 59
1108 -154 1486 -553 120 -128 192 -230 361 -516 84 -143 157 -260 161 -260 4
0 77 117 161 260 84 142 182 298 217 345 260 349 639 595 1063 689 274 60 504
60 778 0 543 -121 1001 -487 1243 -994 54 -113 111 -291 140 -431 20 -101 23
-142 23 -359 0 -185 -5 -272 -18 -355 -136 -848 -605 -1634 -1451 -2427 -830
-779 -2011 -1598 -3366 -2334 l-145 -79 -2090 0 -2090 0 -122 22 c-726 132
-1271 664 -1425 1389 l-23 109 -3 3067 -2 3066 -38 6 c-20 3 -73 8 -117 11
-521 40 -839 208 -986 521 -190 402 -34 832 424 1177 42 32 1541 997 3330
2145 2292 1471 3289 2105 3377 2148 162 81 290 128 475 174 247 62 354 74 645
74 291 0 398 -12 645 -74 186 -46 313 -93 475 -174 88 -43 1095 -684 3379
-2150 1790 -1148 3289 -2113 3330 -2144 104 -77 286 -262 344 -350 178 -268
206 -555 78 -826 -147 -313 -465 -481 -986 -521 -44 -3 -97 -8 -117 -11 l-38
-6 0 -3025 c0 -2678 -2 -3038 -15 -3132 -41 -279 -146 -540 -311 -773 -79
-111 -287 -317 -404 -401 -114 -81 -339 -194 -470 -237 -128 -41 -264 -68
-407 -80 -73 -6 -1044 -10 -2527 -10 l-2410 0 -468 -262 -468 -263 2982 -3
c2093 -2 3008 1 3068 8 409 52 827 236 1147 504 385 322 655 754 767 1226 65
274 60 24 63 3141 l3 2825 78 19 c594 139 1011 551 1118 1105 26 138 24 370
-5 507 -79 378 -313 715 -696 1003 -84 63 -6401 4122 -6620 4253 -316 190
-703 318 -1125 372 -117 16 -549 28 -630 19z"/>
<path d="M7410 10535 c-169 -38 -311 -156 -394 -327 -68 -139 -90 -252 -83
-428 4 -85 13 -165 26 -215 67 -270 239 -503 452 -615 102 -53 183 -73 295
-72 257 1 461 175 550 467 25 82 28 105 28 255 0 137 -3 179 -21 250 -64 253
-217 476 -405 594 -141 87 -312 122 -448 91z"/>
<path d="M10050 10534 c-296 -80 -542 -382 -605 -743 -75 -425 125 -818 456
-896 439 -103 891 368 889 927 -2 358 -174 631 -449 712 -68 20 -216 20 -291
0z"/>
<path d="M5605 9844 c-180 -28 -342 -156 -430 -339 -56 -117 -75 -194 -82
-336 -12 -240 55 -471 192 -665 102 -143 277 -271 421 -308 70 -18 217 -21
284 -5 149 34 294 159 372 319 71 145 83 205 82 400 0 146 -3 176 -27 264 -83
310 -298 560 -554 645 -61 21 -199 34 -258 25z"/>
<path d="M11889 9836 c-223 -62 -429 -259 -537 -514 -60 -140 -77 -230 -77
-412 0 -142 3 -176 23 -244 76 -262 260 -444 485 -478 349 -53 710 250 818
686 26 103 35 297 20 396 -15 96 -59 224 -102 297 -73 123 -206 228 -338 267
-66 19 -225 20 -292 2z"/>
</g>
</svg>
