<?xml version="1.0" standalone="no"?>
<!DOCTYPE svg PUBLIC "-//W3C//DTD SVG 20010904//EN"
 "http://www.w3.org/TR/2001/REC-SVG-20010904/DTD/svg10.dtd">
<svg version="1.0" xmlns="http://www.w3.org/2000/svg"
 width="2287.000000pt" height="2102.000000pt" viewBox="0 0 2287.000000 2102.000000"
 preserveAspectRatio="xMidYMid meet">

<g transform="translate(0.000000,2102.000000) scale(0.100000,-0.100000)"
fill="#000000" stroke="none">
<path d="M6780 21013 c-1318 -58 -2542 -530 -3540 -1366 -1084 -908 -1803
-2159 -2034 -3543 -58 -343 -98 -896 -77 -1049 34 -243 208 -430 446 -480 88
-18 132 -18 220 0 222 47 393 218 440 440 8 41 15 125 15 201 0 326 54 730
145 1089 338 1334 1253 2469 2492 3089 540 270 1106 428 1723 482 324 28 817
12 1135 -36 771 -119 1502 -425 2120 -888 225 -169 352 -288 1060 -993 711
-707 743 -738 815 -772 184 -89 351 -89 524 0 65 34 134 99 806 768 404 402
780 769 835 814 755 626 1575 980 2545 1097 181 21 687 30 890 15 823 -62
1603 -329 2285 -784 944 -630 1625 -1559 1944 -2651 83 -283 148 -650 172
-966 15 -203 6 -709 -15 -890 -117 -969 -474 -1796 -1097 -2545 -46 -55 -259
-278 -474 -495 -416 -420 -431 -439 -471 -575 -11 -38 -17 -94 -17 -150 0
-157 52 -284 163 -395 111 -111 239 -164 395 -164 102 0 177 19 270 67 49 25
128 99 441 411 382 382 512 523 679 735 614 780 1016 1684 1180 2656 62 367
69 472 70 975 0 385 -3 493 -18 630 -120 1078 -503 2058 -1137 2905 -597 798
-1401 1447 -2290 1848 -1364 615 -2898 692 -4320 217 -621 -207 -1218 -529
-1740 -939 -238 -187 -365 -304 -868 -805 l-492 -490 -493 490 c-493 491 -581
575 -777 735 -778 636 -1723 1064 -2722 1234 -387 65 -850 95 -1228 78z"/>
<path d="M3025 14595 c-329 -53 -611 -198 -840 -430 -210 -213 -344 -473 -404
-780 -30 -153 -80 -255 -175 -350 -70 -71 -160 -130 -245 -160 -24 -8 -95 -27
-159 -41 -302 -68 -542 -196 -746 -399 -516 -512 -594 -1291 -190 -1903 79
-119 280 -319 404 -401 244 -162 486 -245 756 -258 208 -10 428 27 611 103
166 68 223 85 312 91 115 7 230 -16 341 -69 l85 -40 1757 -1755 c1372 -1372
1764 -1769 1792 -1817 99 -166 119 -405 49 -571 -63 -149 -97 -248 -121 -350
-23 -99 -26 -130 -27 -310 0 -219 10 -291 66 -460 66 -200 190 -402 343 -562
226 -237 476 -376 800 -445 135 -28 405 -31 546 -5 305 57 571 197 790 417
221 221 346 453 415 770 56 258 171 417 371 512 33 15 115 40 182 53 323 67
561 193 782 414 221 222 355 477 416 791 27 143 25 410 -5 550 -115 544 -477
957 -988 1128 -346 116 -691 104 -1052 -38 -158 -62 -193 -69 -312 -70 -117 0
-221 25 -322 76 -68 35 -174 139 -1828 1793 -1726 1726 -1757 1757 -1797 1836
-68 134 -93 274 -72 409 7 46 32 129 61 203 97 243 124 399 116 653 -4 127
-11 189 -30 270 -68 288 -197 519 -402 725 -122 122 -244 209 -390 280 -127
62 -198 87 -345 122 -135 32 -405 40 -545 18z"/>
<path d="M17110 11109 c-297 -34 -597 -167 -818 -363 -362 -320 -553 -780
-512 -1230 17 -193 51 -316 156 -566 23 -54 28 -84 32 -177 6 -138 -13 -230
-70 -346 l-40 -82 -1762 -1762 -1761 -1761 -85 -40 c-137 -65 -287 -87 -425
-61 -33 6 -105 30 -161 54 -121 52 -236 88 -359 112 -125 24 -386 24 -510 -1
-332 -66 -633 -239 -858 -494 -525 -596 -488 -1507 84 -2058 210 -202 444
-324 751 -393 75 -17 166 -44 202 -61 198 -94 314 -247 361 -475 32 -154 41
-185 86 -300 189 -486 633 -837 1164 -920 143 -23 396 -16 532 14 453 99 825
388 1027 796 97 195 144 380 153 601 10 227 -25 418 -117 650 -27 69 -54 150
-60 181 -25 136 -3 287 62 423 l40 85 1761 1761 c1660 1659 1766 1763 1834
1798 98 50 206 76 314 76 112 0 168 -12 302 -66 271 -109 520 -144 780 -109
493 65 912 358 1136 793 222 433 220 951 -4 1380 -74 141 -152 248 -265 361
-217 218 -469 351 -787 415 -65 14 -139 34 -166 45 -154 66 -291 214 -348 375
-11 32 -29 101 -39 153 -157 761 -865 1278 -1630 1192z"/>
</g>
</svg>
