<?xml version="1.0" standalone="no"?>
<!DOCTYPE svg PUBLIC "-//W3C//DTD SVG 20010904//EN"
 "http://www.w3.org/TR/2001/REC-SVG-20010904/DTD/svg10.dtd">
<svg version="1.0" xmlns="http://www.w3.org/2000/svg"
 width="2335.000000pt" height="2170.000000pt" viewBox="0 0 2335.000000 2170.000000"
 preserveAspectRatio="xMidYMid meet">

<g transform="translate(0.000000,2170.000000) scale(0.100000,-0.100000)"
fill="#000000" stroke="none">
<path d="M6575 21689 c-1500 -85 -2943 -655 -4082 -1611 -1424 -1194 -2300
-2876 -2468 -4738 -35 -381 -30 -940 11 -1325 121 -1145 507 -2218 1136 -3159
179 -268 371 -515 606 -781 63 -71 2280 -2295 4926 -4942 4236 -4237 4818
-4815 4866 -4837 65 -30 134 -34 206 -10 45 15 397 364 4857 4823 2645 2643
4860 4863 4922 4932 1016 1118 1632 2509 1780 4018 22 221 21 1138 -1 1353
-130 1281 -587 2469 -1339 3478 -1614 2167 -4303 3198 -6970 2674 -1195 -235
-2329 -795 -3237 -1598 -54 -47 -101 -86 -105 -86 -5 0 -41 30 -81 65 -412
366 -866 681 -1367 948 -768 409 -1676 682 -2565 771 -342 35 -760 44 -1095
25z m1055 -557 c231 -26 421 -55 615 -93 1193 -239 2286 -807 3168 -1648 134
-127 175 -150 261 -151 105 0 126 11 295 168 499 461 955 781 1521 1067 784
395 1590 614 2484 676 225 15 848 6 1051 -16 1098 -117 2064 -461 2943 -1046
1133 -755 1982 -1830 2468 -3125 183 -488 313 -1062 371 -1644 22 -221 25
-898 5 -1120 -101 -1117 -453 -2130 -1055 -3035 -309 -465 -524 -710 -1320
-1504 -417 -416 -447 -444 -469 -434 -38 18 -185 141 -271 227 -353 350 -567
808 -711 1516 -32 160 -73 406 -131 785 -62 406 -96 610 -148 870 -25 121 -52
264 -62 317 -9 54 -26 115 -37 135 -10 21 -50 130 -87 243 -303 907 -803 1562
-1591 2085 -794 526 -1795 903 -2690 1014 -341 42 -711 53 -1014 30 -669 -50
-1298 -244 -1729 -532 -172 -114 -293 -235 -412 -410 -186 -271 -343 -451
-490 -563 -84 -63 -264 -150 -365 -175 -108 -26 -346 -36 -486 -20 -137 16
-378 66 -780 160 -407 96 -679 152 -869 180 -709 104 -1146 -17 -1383 -383
-146 -225 -252 -631 -252 -965 0 -732 376 -1506 1085 -2230 579 -592 1260
-1048 2060 -1381 484 -201 791 -374 1102 -622 144 -114 364 -330 467 -458 208
-261 383 -593 469 -895 33 -116 72 -312 89 -445 17 -134 16 -541 0 -685 -58
-494 -191 -955 -441 -1524 -105 -238 -165 -392 -231 -591 -333 -999 -386
-2055 -153 -3060 19 -85 38 -166 40 -180 7 -37 -8690 8663 -8862 8865 -801
941 -1308 2057 -1484 3270 -106 730 -83 1509 65 2229 119 577 295 1080 564
1611 243 481 515 886 874 1305 116 135 511 530 646 646 779 668 1665 1130
2638 1373 372 94 738 151 1177 185 28 2 237 2 465 1 338 -2 449 -7 600 -23z
m6378 -5218 c657 -60 1328 -262 2017 -607 517 -258 867 -499 1175 -807 435
-436 722 -962 909 -1670 84 -314 -3 -649 -252 -980 -427 -565 -1328 -1097
-2752 -1625 -137 -51 -334 -124 -436 -163 -417 -157 -646 -198 -880 -157 -242
42 -449 160 -692 395 -151 146 -251 259 -387 441 -173 230 -211 326 -218 549
-3 120 0 162 17 246 97 469 442 995 1061 1615 380 381 799 738 1250 1066 85
62 175 130 199 150 80 67 111 179 79 287 -16 55 -109 148 -164 164 -52 15
-125 15 -174 1 -65 -20 -500 -342 -816 -605 -347 -288 -755 -674 -1000 -945
-799 -883 -1120 -1660 -949 -2297 52 -195 126 -339 274 -536 406 -539 804
-868 1220 -1006 170 -57 277 -74 466 -73 291 0 473 44 990 238 138 51 345 128
460 170 1090 399 1893 825 2435 1291 136 118 358 347 437 451 l61 82 11 -67
c82 -512 120 -710 186 -967 194 -754 506 -1275 1000 -1670 33 -26 62 -49 65
-52 5 -5 -7832 -7843 -7842 -7843 -4 0 -38 80 -76 178 -202 514 -320 1032
-363 1592 -17 226 -7 728 20 945 69 570 197 1029 441 1580 507 1144 632 2148
375 3021 -178 603 -536 1141 -1040 1560 -374 311 -763 537 -1310 759 -187 76
-547 254 -720 355 -824 485 -1488 1141 -1836 1815 -170 330 -250 630 -251 940
0 172 18 301 64 445 65 204 119 284 230 341 100 51 172 63 373 63 261 1 493
-35 1020 -159 713 -167 872 -198 1103 -217 229 -18 481 12 692 81 106 35 318
145 420 218 117 84 328 293 436 433 45 58 124 168 177 245 104 153 162 214
278 293 322 216 793 372 1314 433 262 30 592 31 903 3z"/>
<path d="M11433 14340 c-80 -26 -170 -107 -204 -182 -36 -80 -34 -202 4 -280
62 -126 205 -209 335 -194 198 23 339 208 302 394 -42 205 -243 325 -437 262z"/>
</g>
</svg>
